<svg version="1.0" xmlns="http://www.w3.org/2000/svg" width="933.333" height="933.333" viewBox="0 0 700 700"><path d="M0 350v350h700V0H0v350zm319.7-217.4c-.3.3-1.2.4-1.9.1-.8-.3-.5-.6.6-.6 1.1-.1 1.7.2 1.3.5zm63 0c-.3.3-1.2.4-1.9.1-.8-.3-.5-.6.6-.6 1.1-.1 1.7.2 1.3.5zm-75.2 4.9c-40 19.7-65.7 77.1-74.6 167-2 19.3-1.7 68.1.5 88 9.6 88.6 37.3 145.7 79.4 164.1 8.8 3.9 8.6 3.9-5.7 1.8-79.2-11.5-145.7-58.7-177.9-126.2-13.9-29.3-20.1-60-18.9-93.7 1.1-31.1 8.6-59.3 22.9-86.5 26.9-51.2 75.8-90.8 134.5-109.3 13.8-4.4 37.7-9.4 45.3-9.6 3.1-.1 2.5.4-5.5 4.4zm92.6-2.5c77.7 13.6 142.5 61.9 172.2 128.3 30.7 68.8 21.2 147.4-25.2 207.4-36.3 46.9-92.1 78.7-154.2 87.7-14.1 2.1-14.5 2-6.7-1.3 12.4-5.3 25.8-16 36.1-28.6 9.2-11.4 21.2-34.9 27.6-54.2 12.6-38.2 18.4-78.1 18.5-126.8.1-46.2-4.9-84.9-15.4-120.8-13.5-46.1-33.8-76-60.5-89.2-10.4-5.2-9.5-5.5 7.6-2.5z"/></svg>